# xmcd
# Copyright (C) 1995-1998 Ti Kan
#
# Track frame offsets:
#       150
#       15327
#       31025
#       46767
#       68052
#       80577
#       100527
#       115370
#       135602
#       154777
#       173440
#       192832
#       206802
#       225042
#
# Disc length: 3268 seconds
#
# Revision: 0
# Processed by: cddbd v1.5.2PL0 Copyright (c) Steve Scherf et al.
# Submitted via: CD-Import v1.0
#
DISCID=9b0cc20e
DTITLE=Beck - Guero
DYEAR=2005
DGENRE=
TTITLE0=E-Pro
TTITLE1=Qué Onda Guero
TTITLE2=Girl
TTITLE3=Missing
TTITLE4=Black Tambourine
TTITLE5=Earthquake Weather
TTITLE6=Hell Yes
TTITLE7=Broken Drum
TTITLE8=Scarecrow
TTITLE9=Go It Alone
TTITLE10=Farewell Ride
TTITLE11=Rental Car
TTITLE12=Emergency Exit
TTITLE13=Send A Message To Her
EXTD=
EXTT0=
EXTT1=
EXTT2=
EXTT3=
EXTT4=
EXTT5=
EXTT6=
EXTT7=
EXTT8=
EXTT9=
EXTT10=
EXTT11=
EXTT12=
EXTT13=
PLAYORDER=
